<?xml version="1.0" encoding="UTF-8"?>
<svg version="1.1" xmlns="http://www.w3.org/2000/svg" width="512" height="512">
<path d="M0 0 C168.96 0 337.92 0 512 0 C512 168.96 512 337.92 512 512 C343.04 512 174.08 512 0 512 C0 343.04 0 174.08 0 0 Z " fill="#302F2F" transform="translate(0,0)"/>
<path d="M0 0 C1.17441535 2.10016623 2.33964012 4.20458755 3.5 6.3125 C3.83386719 6.90740234 4.16773438 7.50230469 4.51171875 8.11523438 C6.06825114 10.95828844 7 12.70660988 7 16 C8.85625 15.5359375 8.85625 15.5359375 10.75 15.0625 C20.98465879 12.80621167 31.50105379 12.80689014 41.9375 12.8125 C43.19135498 12.81185547 44.44520996 12.81121094 45.73706055 12.81054688 C56.5798613 12.87131794 67.24359009 13.6833684 78 15 C80.64 10.05 83.28 5.1 86 0 C96.44303662 1.09926701 106.00393397 2.68989422 116 6 C116.87672363 6.28681641 117.75344727 6.57363281 118.65673828 6.86914062 C124.63047936 8.83799907 130.55575598 10.91105272 136.45703125 13.08740234 C138.51252965 13.82506104 140.59684855 14.4820994 142.6875 15.11328125 C153.77324896 19.1672453 158.7075734 31.19483464 164 41 C164.59554687 42.09707275 164.59554687 42.09707275 165.203125 43.21630859 C167.62510218 47.74106215 169.83509338 52.34800861 172 57 C172.3604541 57.75571289 172.7209082 58.51142578 173.09228516 59.29003906 C182.55155166 79.14361673 189.13183661 99.3367126 193 121 C193.18653137 122.00077072 193.18653137 122.00077072 193.37683105 123.02175903 C195.8954246 136.7751468 196.64933031 150.37082714 196.72070312 164.34106445 C196.75035917 167.85505824 196.8440264 171.36414712 196.9375 174.87695312 C196.95705063 177.13278189 196.97281746 179.38864737 196.984375 181.64453125 C197.02141541 182.68309769 197.05845581 183.72166412 197.09661865 184.79170227 C197.05699118 189.08749368 197.00647668 191.86814453 194.07936096 195.15989685 C191.79318503 196.96407065 189.49729483 198.50526571 187 200 C185.58114571 200.93485529 184.16303139 201.87083598 182.74609375 202.80859375 C181.31468158 203.69269159 179.87833636 204.56884564 178.4375 205.4375 C177.66083984 205.90776611 176.88417969 206.37803223 176.08398438 206.86254883 C168.58839452 211.34145347 160.90899382 215.30801517 153 219 C152.27280762 219.34160156 151.54561523 219.68320312 150.79638672 220.03515625 C124.62490295 232.2451362 124.62490295 232.2451362 117.7890625 231.8828125 C111.62498679 228.84115069 107.93598551 219.33275343 104.5625 213.5 C104.20833008 212.88874268 103.85416016 212.27748535 103.48925781 211.64770508 C101 207.24833046 101 207.24833046 101 205 C104.22838633 203.5399348 107.45784485 202.08225617 110.6875 200.625 C112.05551758 200.00625 112.05551758 200.00625 113.45117188 199.375 C114.33740234 198.97539062 115.22363281 198.57578125 116.13671875 198.1640625 C116.94842529 197.79748535 117.76013184 197.4309082 118.59643555 197.05322266 C121.04441897 195.98053597 123.51331466 194.97919283 126 194 C124.35 192.35 122.7 190.7 121 189 C120.00226563 189.42410156 119.00453125 189.84820312 117.9765625 190.28515625 C108.70973635 194.11139476 99.36728646 197.1958694 89.6875 199.8125 C88.62805176 200.1019751 87.56860352 200.3914502 86.47705078 200.68969727 C58.72930747 207.99297894 28.76959394 208.29885415 1 201 C-0.17820312 200.71253906 -1.35640625 200.42507813 -2.5703125 200.12890625 C-12.9490412 197.51797346 -23.03663743 194.10985124 -32.81640625 189.7421875 C-33.53699219 189.49726563 -34.25757813 189.25234375 -35 189 C-37.36482528 190.1272922 -37.36482528 190.1272922 -39 192 C-39 192.66 -39 193.32 -39 194 C-35.56386118 195.64868626 -32.12586207 197.29345604 -28.6875 198.9375 C-27.71103516 199.40607422 -26.73457031 199.87464844 -25.72851562 200.35742188 C-24.79072266 200.80537109 -23.85292969 201.25332031 -22.88671875 201.71484375 C-22.02264404 202.12855225 -21.15856934 202.54226074 -20.26831055 202.96850586 C-17.91422291 204.08684018 -17.91422291 204.08684018 -15 205 C-16.53667137 209.16312499 -18.54555646 212.97347617 -20.75 216.8125 C-21.10126953 217.42689941 -21.45253906 218.04129883 -21.81445312 218.67431641 C-24.55176298 223.38760629 -27.58203288 227.75226682 -31 232 C-38.51141014 231.54254506 -44.78091869 228.99891554 -51.6875 226.125 C-53.47728271 225.38407104 -53.47728271 225.38407104 -55.30322266 224.62817383 C-73.76952304 216.85347393 -95.63557653 207.36442347 -110 193 C-110.90296322 187.65710757 -111.16875136 182.38504161 -111.203125 176.96875 C-111.21009399 176.22362152 -111.21706299 175.47849304 -111.22424316 174.71078491 C-111.24158432 172.307132 -111.24796777 169.90371296 -111.25 167.5 C-111.25100708 166.6763092 -111.25201416 165.85261841 -111.25305176 165.00396729 C-111.24161967 151.14794244 -110.43158411 137.66565841 -108 124 C-107.85546387 123.16952148 -107.71092773 122.33904297 -107.56201172 121.48339844 C-103.13648281 96.79257381 -94.69051376 73.17444864 -83.03857422 50.99169922 C-81.954137 48.9120474 -80.8997626 46.81883038 -79.84765625 44.72265625 C-78.02134183 41.11257524 -76.1080902 37.56152976 -74.12695312 34.03417969 C-73.39527045 32.71347344 -72.6842147 31.38104851 -71.99804688 30.03613281 C-66.00904705 18.43318981 -57.67399668 14.82095957 -45.55078125 10.7578125 C-43.70131879 10.16936117 -41.85115002 9.58312088 -40 9 C-38.79730469 8.58492187 -37.59460938 8.16984375 -36.35546875 7.7421875 C-29.70283761 5.52755013 -22.86874541 3.91868797 -16.0625 2.25 C-15.16128418 2.02666992 -14.26006836 1.80333984 -13.33154297 1.57324219 C-8.79490894 0.49491069 -4.70078638 -0.27879458 0 0 Z " fill="#BA85FB" transform="translate(213,140)"/>
<path d="M0 0 C7.26811062 5.92678548 11.15132818 13.40766014 12.2421875 22.65625 C12.64649685 32.04521159 10.26020574 40.33264679 4.6953125 47.984375 C-2.20080336 54.4207498 -9.40469571 58.0621474 -18.9453125 57.8828125 C-26.53763322 56.92694478 -33.19372687 52.2836902 -38.1171875 46.609375 C-43.91706248 37.26912968 -45.2087552 28.47154379 -44.1171875 17.609375 C-41.2969839 8.31992575 -35.53488591 1.174763 -27.04296875 -3.54296875 C-17.81054092 -7.47899397 -8.23196924 -5.40697611 0 0 Z " fill="#312F31" transform="translate(324.1171875,241.390625)"/>
<path d="M0 0 C8.4200444 4.55688994 13.5226102 11.16813701 16.41796875 20.30859375 C17.80713397 30.49224336 16.56608518 39.89386728 10.9453125 48.5859375 C6.07793006 54.76509677 -0.22816487 57.85730496 -7.58203125 60.30859375 C-16.48682954 61.02097761 -23.66283106 58.13874522 -30.5 52.546875 C-37.75611733 44.74620853 -39.96810375 35.24722752 -39.8515625 24.94921875 C-39.15172605 15.49635541 -34.59900927 8.52616921 -27.58203125 2.30859375 C-18.49386528 -3.55578429 -9.82081532 -4.40033431 0 0 Z " fill="#312F31" transform="translate(215.58203125,238.69140625)"/>
</svg>
